# xmcd
#
# Track frame offsets: 
#        150
#        28329
#        54580
#        69477
#        90695
#        106413
#        125720
#        150273
#        166277
#        177945
#        193245
#        214919
#        232501
#        247717
#        261004
#
# Disc length: 3786 seconds
#
# Revision: 0
# Processed by: cddbd v1.5.2PL0 Copyright (c) Steve Scherf et al.
# Submitted via: ExactAudioCopy v0.99pb5
#
DISCID=c50ec80f
DTITLE=Re-Flex - Re-Fuse
DYEAR=2010
DGENRE=Rock
TTITLE0=The Politics of Dancing (original Punter version)
TTITLE1=New Progression
TTITLE2=Life's Too Dangerous
TTITLE3=The Look
TTITLE4=Praying To The Beat (original Punter version)
TTITLE5=King Of No One
TTITLE6=Over The Top
TTITLE7=Alright On The Night (version 2)
TTITLE8=Wizz Kid
TTITLE9=Life in the Lay-By
TTITLE10=Something About You (original version)
TTITLE11=Human Rights
TTITLE12=Hit Line (unpleasant mix - video version)
TTITLE13=I Saw Her Standing
TTITLE14=Mindless Dancing (MK Big Band Mix)
EXTD=
EXTT0=
EXTT1=
EXTT2=
EXTT3=
EXTT4=
EXTT5=
EXTT6=
EXTT7=
EXTT8=
EXTT9=
EXTT10=
EXTT11=
EXTT12=
EXTT13=
EXTT14=
PLAYORDER=
